<?xml version="1.0" encoding="utf-8"?>
<!-- Generator: Adobe Illustrator 25.3.0, SVG Export Plug-In . SVG Version: 6.00 Build 0)  -->
<svg version="1.1" id="Capa_1" xmlns="http://www.w3.org/2000/svg" xmlns:xlink="http://www.w3.org/1999/xlink" x="0px" y="0px"
	 viewBox="0 0 574.8 147.3" style="enable-background:new 0 0 574.8 147.3;" xml:space="preserve">
<style type="text/css">
	.st0{fill:#FFFFFF;stroke:#000000;stroke-width:7;stroke-miterlimit:10;}
	.st1{fill:#899AC2;}
	.st2{fill:#F4D3CB;}
	.st3{fill:none;stroke:#000000;stroke-width:7;stroke-miterlimit:10;}
	.st4{opacity:0.95;fill:#F4F1BB;stroke:#74C6C7;stroke-width:3;stroke-miterlimit:10;}
	.st5{opacity:0.96;}
	.st6{fill:#FCDBC3;stroke:#000000;stroke-width:8;stroke-miterlimit:10;}
	.st7{fill:#99CDCD;stroke:#000000;stroke-width:5;stroke-miterlimit:10;}
	.st8{fill:none;stroke:#000000;stroke-width:4;stroke-linecap:round;stroke-miterlimit:10;}
	.st9{stroke:#000000;stroke-miterlimit:10;}
	.st10{fill:#FCDCC3;stroke:#000000;stroke-width:5;stroke-miterlimit:10;}
	.st11{fill:#74C6C7;stroke:#000000;stroke-width:0.25;stroke-linecap:round;stroke-miterlimit:10;}
</style>
<path class="st0" d="M507.94-191.37"/>
<g>
	<g>
		<path class="st1" d="M191.41,35.1h49.94v15.11h-31.92v16.01h27.18v15.11h-27.18v18.36h33.15v15.11h-51.17V35.1z"/>
		<path class="st1" d="M254.26,35.1h19.07l9.61,37.14c2.37,8.72,3.97,16.76,6.39,25.56h0.49c2.42-8.8,4.11-16.84,6.39-25.56
			l9.41-37.14h18.42l-24.04,79.71h-21.65L254.26,35.1z"/>
		<path class="st1" d="M353.49,35.1h21.56l25.03,79.71h-19.07l-10.43-40.37c-2.22-7.97-4.34-17.4-6.47-25.71h-0.49
			c-1.93,8.42-4.06,17.74-6.27,25.71l-10.47,40.37h-18.42L353.49,35.1z M344.96,81.81h38.35v14h-38.35V81.81z"/>
		<path class="st2" d="M412.95,104.98c0-6.4,4.62-11.34,10.85-11.34c6.23,0,10.85,4.94,10.85,11.34c0,6.36-4.62,11.3-10.85,11.3
			C417.57,116.27,412.95,111.34,412.95,104.98z"/>
		<path class="st2" d="M457.65,35.1h18.02v79.71h-18.02V35.1z"/>
		<path class="st2" d="M496.81,74.61c0-26.04,14.71-40.98,36.2-40.98c21.5,0,36.2,15.03,36.2,40.98c0,26.04-14.71,41.67-36.2,41.67
			C511.52,116.27,496.81,100.65,496.81,74.61z M550.75,74.61c0-15.98-6.86-25.42-17.74-25.42s-17.74,9.44-17.74,25.42
			s6.86,26.11,17.74,26.11S550.75,90.59,550.75,74.61z"/>
	</g>
</g>
<path class="st3" d="M411.35,295.62"/>
<circle class="st4" cx="73.4" cy="73.63" r="68.21"/>
<g class="st5">
	<ellipse class="st6" cx="73.11" cy="61.54" rx="31.33" ry="32.46"/>
	<path class="st7" d="M37.62,110.93V89.1c0,0,0.27-0.75,0.92-1.23c0.89-0.67,2.06-0.92,2.5-1c7.22-1.35,17.94-2.85,31.11-2.92
		c14.65-0.08,26.45,1.63,34.03,3.08c0.58,0.14,1.39,0.4,2.09,0.84c0.56,0.35,0.73,0.63,0.78,0.72c0.09,0.16,0.14,0.34,0.14,0.52
		v21.82"/>
	<path class="st8" d="M59.02,92.76c3.99-0.79,8.44-1.35,13.26-1.46c5.44-0.12,10.42,0.35,14.85,1.11"/>
	<ellipse class="st9" cx="62.72" cy="68.51" rx="3.26" ry="3.38"/>
	<ellipse class="st9" cx="83.84" cy="68.51" rx="3.26" ry="3.38"/>
	<ellipse class="st10" cx="37.62" cy="106.74" rx="6.7" ry="6.94"/>
	<ellipse class="st10" cx="109.18" cy="106.3" rx="6.7" ry="6.94"/>
</g>
<path class="st11" d="M164.4,7.63L164.4,7.63c1.17,0,2.13,0.95,2.13,2.13v123.31c0,1.17-0.95,2.13-2.13,2.13l0,0
	c-1.17,0-2.13-0.95-2.13-2.13V9.76C162.27,8.58,163.23,7.63,164.4,7.63z"/>
</svg>
